<svg xmlns="http://www.w3.org/2000/svg" version="1.1" xmlns:xlink="http://www.w3.org/1999/xlink" xmlns:svgjs="http://svgjs.com/svgjs" width="1440" height="560" preserveAspectRatio="none" viewBox="0 0 1440 560"><g mask="url(&quot;#SvgjsMask1025&quot;)" fill="none"><rect width="1440" height="560" x="0" y="0" fill="rgba(0, 0, 0, 0.11)"></rect><path d="M199.49 15.16L203.61 15.16L203.61 29.5L199.49 29.5z" fill="rgba(211, 183, 20, 0.58)"></path><path d="M1211.38 216.61 a6.92 6.92 0 1 0 13.84 0 a6.92 6.92 0 1 0 -13.84 0z" fill="rgba(231, 54, 53, 0.31)"></path><path d="M690 134.09a51.67 51.67 0 1 0-76.21-69.8z" fill="rgba(211, 183, 20, 0.58)"></path><path d="M421.21 422.81 a7.52 7.52 0 1 0 15.04 0 a7.52 7.52 0 1 0 -15.04 0z" stroke="rgba(3, 54, 123, 0.48)"></path><path d="M704.01 281.06 a36.37 36.37 0 1 0 72.74 0 a36.37 36.37 0 1 0 -72.74 0z" stroke="rgba(3, 54, 123, 0.48)"></path><path d="M1095.87 83.59 a12.02 12.02 0 1 0 24.04 0 a12.02 12.02 0 1 0 -24.04 0z" stroke="rgba(211, 183, 20, 0.58)"></path><path d="M1349.22 2.48 a55.17 55.17 0 1 0 110.34 0 a55.17 55.17 0 1 0 -110.34 0z" fill="rgba(211, 183, 20, 0.58)"></path><path d="M632.73 446.77L649.65 446.77L649.65 477.15L632.73 477.15z" fill="rgba(231, 54, 53, 0.31)"></path><path d="M211.28 88.11a46.46 46.46 0 1 0 72.56 58.04z" stroke="rgba(211, 183, 20, 0.58)"></path><path d="M477.38 105.37 a53.94 53.94 0 1 0 107.88 0 a53.94 53.94 0 1 0 -107.88 0z" fill="rgba(231, 54, 53, 0.31)"></path><path d="M7.49 19.21L27.73 19.21L27.73 24.83L7.49 24.83z" stroke="rgba(3, 54, 123, 0.48)"></path><path d="M507.05 234.11 a48.27 48.27 0 1 0 96.54 0 a48.27 48.27 0 1 0 -96.54 0z" fill="rgba(3, 54, 123, 0.48)"></path><path d="M745.58 286.86a11.1 11.1 0 1 0 13.96-17.26z" stroke="rgba(211, 183, 20, 0.58)"></path><path d="M1427.23 431.89L1466.82 431.89L1466.82 471.48L1427.23 471.48z" stroke="rgba(211, 183, 20, 0.58)"></path><path d="M676.3 77.63 a41 41 0 1 0 82 0 a41 41 0 1 0 -82 0z" fill="rgba(3, 54, 123, 0.48)"></path><path d="M73.65 474.83L105.69 474.83L105.69 506.87L73.65 506.87z" fill="rgba(3, 54, 123, 0.48)"></path><path d="M833.08 125.11 a21.63 21.63 0 1 0 43.26 0 a21.63 21.63 0 1 0 -43.26 0z" fill="rgba(3, 54, 123, 0.48)"></path><path d="M66.42 522.77a20.24 20.24 0 1 0 39.95 6.54z" fill="rgba(211, 183, 20, 0.58)"></path><path d="M94.02 18.27L127.55 18.27L127.55 48.4L94.02 48.4z" fill="rgba(211, 183, 20, 0.58)"></path><path d="M924.43 360.05a4.73 4.73 0 1 0 4.38-8.39z" stroke="rgba(211, 183, 20, 0.58)"></path><path d="M621.07 81.29a6.87 6.87 0 1 0 8.68 10.66z" stroke="rgba(231, 54, 53, 0.31)"></path><path d="M1031.16 41.58 a46.84 46.84 0 1 0 93.68 0 a46.84 46.84 0 1 0 -93.68 0z" fill="rgba(231, 54, 53, 0.31)"></path><path d="M356.34 122.61a55.22 55.22 0 1 0 45.19 100.77z" stroke="rgba(211, 183, 20, 0.58)"></path><path d="M1042.71 370.47L1056.48 370.47L1056.48 422.38L1042.71 422.38z" fill="rgba(231, 54, 53, 0.31)"></path><path d="M1262.76 221.85L1313.7 221.85L1313.7 243.77L1262.76 243.77z" fill="rgba(211, 183, 20, 0.58)"></path><path d="M469.1 159.18a10.81 10.81 0 1 0 19.14-10.06z" stroke="rgba(211, 183, 20, 0.58)"></path><path d="M872.39 528.13 a0.11 0.11 0 1 0 0.22 0 a0.11 0.11 0 1 0 -0.22 0z" fill="rgba(3, 54, 123, 0.48)"></path><path d="M60.82 101.89L66.17 101.89L66.17 116.36L60.82 116.36z" stroke="rgba(211, 183, 20, 0.58)"></path><path d="M391.19 166.93L392.81 166.93L392.81 168.55L391.19 168.55z" stroke="rgba(211, 183, 20, 0.58)"></path><path d="M230.47 225.34L284.55 225.34L284.55 279.42L230.47 279.42z" stroke="rgba(3, 54, 123, 0.48)"></path><path d="M910.96 98.31L927.43 98.31L927.43 114.78L910.96 114.78z" fill="rgba(3, 54, 123, 0.48)"></path><path d="M550.92 396.43L563.16 396.43L563.16 408.67L550.92 408.67z" stroke="rgba(3, 54, 123, 0.48)"></path><path d="M1427.49 338.06L1477.38 338.06L1477.38 351.89L1427.49 351.89z" fill="rgba(231, 54, 53, 0.31)"></path></g><defs><mask id="SvgjsMask1025"><rect width="1440" height="560" fill="#ffffff"></rect></mask></defs></svg>