<svg xmlns="http://www.w3.org/2000/svg" version="1.1" xmlns:xlink="http://www.w3.org/1999/xlink" xmlns:svgjs="http://svgjs.com/svgjs" width="1440" height="1440" preserveAspectRatio="none" viewBox="0 0 1440 1440"><g mask="url(&quot;#SvgjsMask1117&quot;)" fill="none"><rect width="1440" height="1440" x="0" y="0" fill="rgba(255, 0, 0, 0.46)"></rect><path d="M0,493.287C128.039,490.782,246.247,612.376,367.965,572.565C493.055,531.651,577.069,408.197,629.385,287.431C681.164,167.902,686.469,32.415,656.914,-94.45C628.821,-215.041,553,-315.492,467.962,-405.491C385.842,-492.402,293.794,-577.303,176.901,-602.468C63.394,-626.904,-51.235,-584.414,-158.674,-540.394C-257.454,-499.922,-350.377,-444.595,-415.28,-359.842C-477.922,-278.041,-498.269,-175.691,-515.719,-74.149C-533.617,30,-539.4,133.016,-517.755,236.451C-491.43,362.25,-492.471,530.03,-377.335,587.144C-258.825,645.932,-132.265,495.874,0,493.287" fill="rgba(214, 0, 0, 0.46)"></path><path d="M1440 2138.8559999999998C1568.243 2150.8379999999997 1670.394 2035.3890000000001 1770.734 1954.6309999999999 1861.891 1881.263 1953.413 1802.752 1993.973 1692.991 2033.138 1587.004 2008.152 1472.449 1990.135 1360.903 1972.4160000000002 1251.201 1960.5839999999998 1135.896 1890.113 1049.975 1818.807 963.0360000000001 1709.084 922.531 1602.13 887.834 1492.581 852.295 1373.549 806.237 1266.031 847.515 1159.9940000000001 888.224 1114.308 1008.14 1048.196 1100.5 988.446 1183.973 926.112 1263.38 897.736 1362.034 866.14 1471.883 828.247 1593.723 876.53 1697.328 924.757 1800.813 1056.868 1825.911 1146.7350000000001 1896.33 1248.649 1976.188 1311.086 2126.811 1440 2138.8559999999998" fill="rgba(255, 41, 41, 0.46)"></path></g><defs><mask id="SvgjsMask1117"><rect width="1440" height="1440" fill="#ffffff"></rect></mask></defs></svg>