<svg xmlns="http://www.w3.org/2000/svg" version="1.1" xmlns:xlink="http://www.w3.org/1999/xlink" xmlns:svgjs="http://svgjs.com/svgjs" width="1440" height="1440" preserveAspectRatio="none" viewBox="0 0 1440 1440"><g mask="url(&quot;#SvgjsMask1126&quot;)" fill="none"><rect width="1440" height="1440" x="0" y="0" fill="rgba(231, 76, 76, 0.31)"></rect><path d="M0,715.736C133.766,698.375,181.995,527.785,278.858,433.911C352.83,362.222,445.604,315.461,501.983,229.248C565.303,132.422,624.602,26.349,621.007,-89.287C617.238,-210.527,569.079,-333.233,481.873,-417.546C397.36,-499.255,266.955,-493.724,157.733,-537.191C34.021,-586.424,-70.338,-705.422,-202.583,-689.936C-337.647,-674.12,-452.84,-570.712,-527.367,-456.966C-597.786,-349.491,-577.055,-212.745,-598.275,-86.019C-620.112,44.39,-708.011,177.98,-653.892,298.622C-599.768,419.274,-441.096,441.768,-329.611,512.884C-218.597,583.699,-130.582,732.684,0,715.736" fill="rgba(228, 52, 52, 0.31)"></path><path d="M1440 1962.074C1533.371 1938.0520000000001 1607.6 1878.922 1691.079 1830.687 1779.442 1779.63 1888.782 1755.865 1944.665 1670.473 2003.4769999999999 1580.605 2019.682 1465.04 1999.391 1359.5720000000001 1979.524 1256.31 1911.336 1169.966 1834.551 1098.12 1763.136 1031.299 1674.929 985.796 1579.089 966.306 1488.392 947.8620000000001 1397.229 965.8340000000001 1308.186 991.081 1218.409 1016.5360000000001 1137.726 1057.726 1062.4 1112.807 968.554 1181.43 838.205 1236.126 816.802 1350.398 795.481 1464.229 914.376 1552.762 960.063 1659.18 1007.174 1768.916 988.4580000000001 1921.733 1089.4479999999999 1985.469 1190.531 2049.264 1324.239 1991.856 1440 1962.074" fill="rgba(234, 100, 100, 0.31)"></path></g><defs><mask id="SvgjsMask1126"><rect width="1440" height="1440" fill="#ffffff"></rect></mask></defs></svg>